<?xml version="1.0" standalone="no"?>
<!DOCTYPE svg PUBLIC "-//W3C//DTD SVG 20010904//EN"
 "http://www.w3.org/TR/2001/REC-SVG-20010904/DTD/svg10.dtd">
<svg version="1.0" xmlns="http://www.w3.org/2000/svg"
 width="1144.000000pt" height="495.000000pt" viewBox="0 0 1144.000000 495.000000"
 preserveAspectRatio="xMidYMid meet">

<g transform="translate(0.000000,495.000000) scale(0.100000,-0.100000)"
fill="#000000" stroke="none">
<path d="M420 4935 c0 -8 14 -30 31 -50 39 -44 97 -62 150 -46 38 12 99 71 99
96 0 21 -39 19 -63 -2 -18 -17 -19 -17 -32 0 -13 18 -65 24 -65 8 0 -5 14 -15
30 -23 41 -18 38 -28 -8 -28 -30 0 -46 7 -68 30 -31 31 -74 40 -74 15z"/>
<path d="M780 4941 c0 -5 12 -19 28 -31 21 -17 36 -21 66 -17 42 6 62 19 52
36 -5 7 -22 9 -45 5 -24 -4 -41 -2 -45 5 -9 13 -56 15 -56 2z"/>
<path d="M940 4930 c15 -29 47 -42 81 -35 25 6 49 30 49 49 0 12 -34 5 -52
-11 -17 -15 -19 -15 -36 0 -10 10 -26 17 -36 17 -14 0 -15 -4 -6 -20z"/>
<path d="M1090 4925 c0 -18 5 -25 20 -25 15 0 20 7 20 25 0 18 -5 25 -20 25
-15 0 -20 -7 -20 -25z"/>
<path d="M1170 4925 c0 -18 5 -25 20 -25 15 0 20 7 20 25 0 18 -5 25 -20 25
-15 0 -20 -7 -20 -25z"/>
<path d="M1254 4934 c3 -9 6 -20 6 -25 0 -5 14 -9 30 -9 17 0 30 4 30 9 0 5 3
16 6 25 5 13 -2 16 -36 16 -34 0 -41 -3 -36 -16z"/>
<path d="M1367 4931 c6 -25 53 -44 87 -35 37 9 27 29 -14 29 -18 0 -35 6 -37
13 -3 6 -13 12 -23 12 -13 0 -17 -5 -13 -19z"/>
<path d="M1510 4925 c0 -18 5 -25 20 -25 15 0 20 7 20 25 0 18 -5 25 -20 25
-15 0 -20 -7 -20 -25z"/>
<path d="M1600 4932 c0 -23 19 -42 41 -42 28 0 32 17 9 40 -25 25 -50 26 -50
2z"/>
<path d="M1680 4925 c0 -18 5 -25 20 -25 15 0 20 7 20 25 0 18 -5 25 -20 25
-15 0 -20 -7 -20 -25z"/>
<path d="M1740 4944 c0 -19 24 -43 50 -49 35 -8 80 15 80 40 0 19 -15 19 -44
0 -21 -14 -25 -14 -39 0 -15 14 -47 21 -47 9z"/>
<path d="M2508 4938 c6 -6 18 -8 28 -6 14 3 12 5 -9 10 -19 3 -25 2 -19 -4z"/>
<path d="M2587 4938 c2 -5 10 -8 18 -8 8 0 16 3 18 8 3 4 -5 7 -18 7 -13 0
-21 -3 -18 -7z"/>
<path d="M2760 4939 c0 -5 5 -7 10 -4 6 3 10 8 10 11 0 2 -4 4 -10 4 -5 0 -10
-5 -10 -11z"/>
<path d="M2828 4938 c6 -6 18 -8 28 -6 14 3 12 5 -9 10 -19 3 -25 2 -19 -4z"/>
<path d="M3018 4938 c5 -5 16 -8 23 -6 8 3 3 7 -10 11 -17 4 -21 3 -13 -5z"/>
<path d="M3727 4938 c2 -5 13 -8 23 -8 10 0 21 3 23 8 3 4 -8 7 -23 7 -15 0
-26 -3 -23 -7z"/>
<path d="M3838 4938 c6 -6 18 -8 28 -6 14 3 12 5 -9 10 -19 3 -25 2 -19 -4z"/>
<path d="M5158 4938 c6 -6 18 -8 28 -6 14 3 12 5 -9 10 -19 3 -25 2 -19 -4z"/>
<path d="M5395 4940 c-16 -7 -17 -9 -3 -9 9 -1 20 4 23 9 7 11 7 11 -20 0z"/>
<path d="M5958 4938 c6 -6 18 -8 28 -6 14 3 12 5 -9 10 -19 3 -25 2 -19 -4z"/>
<path d="M6062 4930 c0 -14 2 -19 5 -12 2 6 2 18 0 25 -3 6 -5 1 -5 -13z"/>
<path d="M9098 4938 c5 -5 16 -8 23 -6 8 3 3 7 -10 11 -17 4 -21 3 -13 -5z"/>
<path d="M9357 4939 c7 -7 15 -10 18 -7 3 3 -2 9 -12 12 -14 6 -15 5 -6 -5z"/>
<path d="M9480 4940 c-23 -7 -23 -8 -3 -9 12 -1 25 4 28 9 3 6 5 10 3 9 -2 -1
-14 -5 -28 -9z"/>
<path d="M9538 4938 c6 -6 18 -8 28 -6 14 3 12 5 -9 10 -19 3 -25 2 -19 -4z"/>
<path d="M9620 4940 c-23 -7 -23 -8 -3 -9 12 -1 25 4 28 9 3 6 5 10 3 9 -2 -1
-14 -5 -28 -9z"/>
<path d="M9685 4940 c-16 -7 -17 -9 -3 -9 9 -1 20 4 23 9 7 11 7 11 -20 0z"/>
<path d="M9737 4939 c7 -7 15 -10 18 -7 3 3 -2 9 -12 12 -14 6 -15 5 -6 -5z"/>
<path d="M5248 4933 c7 -3 16 -2 19 1 4 3 -2 6 -13 5 -11 0 -14 -3 -6 -6z"/>
<path d="M9198 4933 c7 -3 16 -2 19 1 4 3 -2 6 -13 5 -11 0 -14 -3 -6 -6z"/>
<path d="M5629 4573 c-1 -21 -1 -44 0 -52 2 -7 -1 -11 -6 -9 -4 2 -21 10 -36
18 -25 12 -30 11 -55 -7 -23 -17 -27 -27 -27 -73 0 -46 4 -56 27 -73 27 -20
29 -20 62 -4 32 15 35 15 39 -1 3 -9 5 40 6 111 0 70 -1 127 -4 127 -3 0 -6
-17 -6 -37z m-18 -69 c7 -9 14 -33 14 -54 0 -21 -7 -45 -14 -54 -16 -19 -62
-21 -79 -4 -15 15 -16 82 -2 109 13 24 62 26 81 3z"/>
<path d="M4034 4593 c-60 -12 -94 -115 -60 -181 18 -35 71 -57 116 -47 39 9
39 26 0 19 -95 -19 -150 98 -80 168 27 27 36 30 70 25 48 -6 63 8 19 17 -18 3
-34 5 -38 5 -3 -1 -16 -4 -27 -6z"/>
<path d="M5938 4463 c-3 -135 -4 -138 -25 -141 -13 -2 -23 -8 -23 -13 0 -14
23 -11 48 7 21 14 22 22 22 150 0 180 -19 178 -22 -3z"/>
<path d="M6020 4480 c0 -73 4 -120 10 -120 6 0 10 20 10 44 0 43 0 43 41 49
22 3 49 13 60 23 19 17 26 69 11 90 -13 20 -50 34 -91 34 l-41 0 0 -120z m101
90 c23 -13 26 -62 3 -84 -8 -9 -31 -16 -50 -16 l-34 0 0 55 c0 55 0 55 31 55
17 0 39 -5 50 -10z"/>
<path d="M6264 4586 c-43 -19 -64 -53 -64 -104 0 -89 56 -133 147 -116 33 6
33 6 33 65 l0 59 -35 0 c-41 0 -47 -17 -7 -22 23 -3 27 -8 30 -40 3 -33 0 -38
-22 -44 -40 -10 -94 4 -111 29 -18 25 -20 86 -4 121 15 33 60 50 109 42 47 -7
55 9 9 18 -42 8 -49 7 -85 -8z"/>
<path d="M7250 4587 c-29 -14 -39 -59 -19 -83 7 -9 30 -23 51 -31 51 -20 66
-48 41 -75 -14 -16 -27 -19 -60 -15 -45 5 -58 -7 -22 -18 35 -11 88 4 105 31
24 35 8 63 -52 94 -51 26 -65 50 -43 77 10 11 24 14 56 9 45 -6 60 7 21 18
-34 9 -50 7 -78 -7z"/>
<path d="M7370 4596 c0 -22 85 -236 92 -234 9 3 88 209 88 230 0 4 -3 8 -8 8
-4 0 -23 -45 -42 -100 -19 -55 -37 -100 -40 -100 -3 0 -20 45 -39 100 -18 55
-37 100 -42 100 -5 0 -9 -2 -9 -4z"/>
<path d="M7653 4593 c-34 -7 -71 -48 -79 -87 -16 -89 50 -155 141 -141 l45 6
0 60 0 59 -35 0 c-19 0 -35 -4 -35 -10 0 -5 12 -10 26 -10 23 0 25 -3 22 -42
-3 -43 -3 -43 -44 -46 -33 -2 -48 2 -70 22 -25 21 -29 31 -28 76 1 72 25 95
99 94 30 0 55 3 55 7 0 6 -55 21 -69 18 -3 -1 -16 -4 -28 -6z"/>
<path d="M4197 4533 c-20 -5 -47 -52 -47 -82 0 -62 56 -104 107 -79 96 46 43
188 -60 161z m74 -29 c7 -9 14 -33 14 -54 0 -47 -19 -70 -56 -70 -32 0 -59 31
-59 70 0 59 67 94 101 54z"/>
<path d="M4350 4453 c0 -56 4 -93 10 -93 6 0 10 26 10 59 0 33 2 65 5 73 3 7
-1 22 -9 33 -14 18 -15 12 -16 -72z"/>
<path d="M4394 4525 c-18 -14 -17 -14 13 -9 51 10 63 -7 63 -87 0 -39 4 -69
10 -69 6 0 10 30 10 70 0 57 -4 74 -20 90 -24 24 -49 25 -76 5z"/>
<path d="M4512 4532 c2 -4 16 -45 33 -90 16 -45 35 -82 42 -82 6 0 19 21 29
48 9 26 23 62 31 81 15 38 16 51 5 51 -4 0 -20 -37 -36 -81 l-29 -82 -29 82
c-17 44 -34 81 -40 81 -5 0 -8 -4 -6 -8z"/>
<path d="M4720 4527 c-31 -15 -48 -75 -34 -115 12 -34 55 -56 94 -47 43 9 37
21 -9 17 -31 -3 -42 0 -55 19 -28 41 -21 49 44 49 56 0 60 2 60 23 0 28 -9 41
-37 56 -27 14 -32 14 -63 -2z m68 -19 c26 -26 13 -38 -38 -38 -52 0 -60 8 -34
34 18 19 55 21 72 4z"/>
<path d="M4860 4450 c0 -53 4 -90 10 -90 6 0 10 27 10 60 0 62 21 100 55 100
8 0 15 5 15 10 0 17 -22 11 -47 -12 l-23 -21 0 21 c0 12 -4 22 -10 22 -6 0
-10 -37 -10 -90z"/>
<path d="M5004 4530 c-27 -11 -38 -38 -22 -57 6 -8 29 -22 50 -30 30 -12 38
-20 36 -37 -3 -18 -9 -21 -50 -20 -54 0 -64 -11 -18 -21 42 -9 85 14 85 45 0
20 -10 30 -45 47 -60 28 -62 57 -5 60 58 2 62 3 40 13 -25 11 -44 11 -71 0z"/>
<path d="M5147 4520 c-38 -30 -39 -99 -1 -137 49 -49 124 -8 124 67 0 73 -69
112 -123 70z m85 -17 c39 -36 13 -123 -38 -123 -34 0 -54 26 -54 70 0 63 50
92 92 53z"/>
<path d="M5323 4450 c0 -86 1 -89 7 -35 9 79 17 95 52 102 20 4 26 9 19 16 -8
8 -20 4 -40 -11 l-30 -22 -4 23 c-2 12 -4 -21 -4 -73z"/>
<path d="M5733 4530 c-27 -11 -43 -40 -43 -80 0 -62 43 -98 102 -85 40 9 35
22 -7 17 -40 -5 -75 18 -75 50 0 15 8 18 60 18 54 0 60 2 60 20 0 23 -42 70
-62 69 -7 0 -23 -4 -35 -9z m67 -29 c15 -30 14 -31 -40 -31 -34 0 -50 4 -50
13 0 38 71 52 90 18z"/>
<path d="M6500 4410 c0 -80 4 -130 10 -130 10 0 13 47 12 175 0 83 -1 85 -12
85 -6 0 -10 -50 -10 -130z"/>
<path d="M6544 4525 c-17 -13 -16 -14 17 -8 30 4 39 1 53 -18 9 -13 16 -35 16
-49 0 -14 -7 -36 -16 -49 -14 -19 -23 -22 -52 -17 -40 6 -32 -9 10 -19 21 -5
33 -1 52 19 67 66 -6 197 -80 141z"/>
<path d="M6718 4533 c-33 -9 -18 -20 25 -19 36 1 42 -2 45 -21 3 -18 -2 -23
-18 -23 -11 0 -36 -7 -55 -14 -27 -12 -35 -21 -35 -40 0 -48 47 -71 86 -41 25
19 32 19 37 -2 3 -10 5 16 6 57 0 41 -3 81 -7 87 -9 14 -58 24 -84 16z m72
-107 c0 -31 -22 -48 -57 -44 -57 6 -36 68 23 68 29 0 34 -3 34 -24z"/>
<path d="M6860 4450 c0 -53 4 -90 10 -90 6 0 10 27 10 60 0 62 21 100 55 100
8 0 15 5 15 10 0 17 -22 11 -47 -12 l-23 -21 0 21 c0 12 -4 22 -10 22 -6 0
-10 -37 -10 -90z"/>
<path d="M7018 4533 c-30 -8 -20 -20 12 -15 32 5 60 -11 60 -34 0 -8 -18 -15
-45 -20 -75 -11 -100 -57 -49 -90 23 -16 28 -16 60 -1 29 14 34 15 34 2 0 -8
5 -15 11 -15 8 0 10 25 7 76 -4 94 -23 115 -90 97z m72 -96 c0 -49 -81 -80
-95 -37 -4 12 -1 27 5 35 16 19 90 20 90 2z"/>
<path d="M3958 4183 c6 -2 18 -2 25 0 6 3 1 5 -13 5 -14 0 -19 -2 -12 -5z"/>
<path d="M7655 4160 c-8 -13 8 -18 29 -10 19 6 19 7 -2 12 -12 4 -24 2 -27 -2z"/>
<path d="M4048 4153 c7 -3 16 -2 19 1 4 3 -2 6 -13 5 -11 0 -14 -3 -6 -6z"/>
<path d="M4150 4156 c0 -2 9 -6 20 -9 11 -3 18 -1 14 4 -5 9 -34 13 -34 5z"/>
<path d="M4328 4153 c7 -3 16 -2 19 1 4 3 -2 6 -13 5 -11 0 -14 -3 -6 -6z"/>
<path d="M4428 4153 c7 -3 16 -2 19 1 4 3 -2 6 -13 5 -11 0 -14 -3 -6 -6z"/>
<path d="M4468 4153 c6 -2 18 -2 25 0 6 3 1 5 -13 5 -14 0 -19 -2 -12 -5z"/>
<path d="M4548 4153 c7 -3 16 -2 19 1 4 3 -2 6 -13 5 -11 0 -14 -3 -6 -6z"/>
<path d="M4678 4153 c6 -2 18 -2 25 0 6 3 1 5 -13 5 -14 0 -19 -2 -12 -5z"/>
<path d="M4768 4153 c7 -3 16 -2 19 1 4 3 -2 6 -13 5 -11 0 -14 -3 -6 -6z"/>
<path d="M4958 4153 c6 -2 18 -2 25 0 6 3 1 5 -13 5 -14 0 -19 -2 -12 -5z"/>
<path d="M5088 4153 c7 -3 16 -2 19 1 4 3 -2 6 -13 5 -11 0 -14 -3 -6 -6z"/>
<path d="M5248 4153 c7 -3 16 -2 19 1 4 3 -2 6 -13 5 -11 0 -14 -3 -6 -6z"/>
<path d="M5433 4110 c0 -30 2 -43 4 -27 2 15 2 39 0 55 -2 15 -4 2 -4 -28z"/>
<path d="M5578 4153 c7 -3 16 -2 19 1 4 3 -2 6 -13 5 -11 0 -14 -3 -6 -6z"/>
<path d="M5668 4153 c6 -2 18 -2 25 0 6 3 1 5 -13 5 -14 0 -19 -2 -12 -5z"/>
<path d="M5848 4153 c7 -3 16 -2 19 1 4 3 -2 6 -13 5 -11 0 -14 -3 -6 -6z"/>
<path d="M5943 4153 c9 -2 23 -2 30 0 6 3 -1 5 -18 5 -16 0 -22 -2 -12 -5z"/>
<path d="M6088 4153 c7 -3 16 -2 19 1 4 3 -2 6 -13 5 -11 0 -14 -3 -6 -6z"/>
<path d="M6178 4153 c7 -3 16 -2 19 1 4 3 -2 6 -13 5 -11 0 -14 -3 -6 -6z"/>
<path d="M6338 4153 c7 -3 16 -2 19 1 4 3 -2 6 -13 5 -11 0 -14 -3 -6 -6z"/>
<path d="M6468 4153 c6 -2 18 -2 25 0 6 3 1 5 -13 5 -14 0 -19 -2 -12 -5z"/>
<path d="M6617 4153 c-6 -10 50 -9 60 0 3 4 -8 7 -25 7 -17 0 -33 -3 -35 -7z"/>
<path d="M6778 4153 c7 -3 16 -2 19 1 4 3 -2 6 -13 5 -11 0 -14 -3 -6 -6z"/>
<path d="M6880 4156 c0 -2 9 -6 20 -9 11 -3 18 -1 14 4 -5 9 -34 13 -34 5z"/>
<path d="M6993 4110 c0 -30 2 -43 4 -27 2 15 2 39 0 55 -2 15 -4 2 -4 -28z"/>
<path d="M7058 4153 c7 -3 16 -2 19 1 4 3 -2 6 -13 5 -11 0 -14 -3 -6 -6z"/>
<path d="M7158 4153 c7 -3 16 -2 19 1 4 3 -2 6 -13 5 -11 0 -14 -3 -6 -6z"/>
<path d="M7298 4153 c7 -3 16 -2 19 1 4 3 -2 6 -13 5 -11 0 -14 -3 -6 -6z"/>
<path d="M7416 4151 c-4 -5 3 -7 15 -4 12 3 24 0 29 -6 5 -10 9 -9 13 3 5 12
0 16 -23 16 -16 0 -31 -4 -34 -9z"/>
<path d="M7528 4153 c7 -3 16 -2 19 1 4 3 -2 6 -13 5 -11 0 -14 -3 -6 -6z"/>
<path d="M7588 4153 c7 -3 16 -2 19 1 4 3 -2 6 -13 5 -11 0 -14 -3 -6 -6z"/>
<path d="M7756 4151 c-3 -4 6 -6 19 -3 14 2 25 6 25 8 0 8 -39 4 -44 -5z"/>
<path d="M4123 4105 c0 -27 2 -38 4 -22 2 15 2 37 0 50 -2 12 -4 0 -4 -28z"/>
<path d="M4401 4134 c0 -11 3 -14 6 -6 3 7 2 16 -1 19 -3 4 -6 -2 -5 -13z"/>
<path d="M6853 4105 c0 -27 2 -38 4 -22 2 15 2 37 0 50 -2 12 -4 0 -4 -28z"/>
<path d="M7503 4105 c0 -27 2 -38 4 -22 2 15 2 37 0 50 -2 12 -4 0 -4 -28z"/>
<path d="M4800 4131 c0 -6 -15 -12 -32 -14 -32 -4 -32 -4 5 -5 27 -2 37 2 37
13 0 8 -2 15 -5 15 -3 0 -5 -4 -5 -9z"/>
<path d="M5120 4131 c0 -5 -8 -12 -17 -14 -16 -4 -16 -5 -1 -6 9 0 19 -9 21
-18 3 -10 5 -3 6 15 0 17 -1 32 -4 32 -3 0 -5 -4 -5 -9z"/>
<path d="M5292 4110 c0 -19 2 -27 5 -17 2 9 2 25 0 35 -3 9 -5 1 -5 -18z"/>
<path d="M7190 4131 c0 -6 -15 -12 -32 -14 -32 -4 -32 -4 5 -5 27 -2 37 2 37
13 0 8 -2 15 -5 15 -3 0 -5 -4 -5 -9z"/>
<path d="M7620 4131 c0 -5 -8 -12 -17 -14 -14 -4 -12 -5 5 -6 13 -1 22 5 22
14 0 8 -2 15 -5 15 -3 0 -5 -4 -5 -9z"/>
<path d="M6190 4120 l-25 -8 28 -1 c15 -1 27 4 27 9 0 6 -1 10 -2 9 -2 -1 -14
-5 -28 -9z"/>
<path d="M6350 4120 l-25 -8 28 -1 c15 -1 27 4 27 9 0 6 -1 10 -2 9 -2 -1 -14
-5 -28 -9z"/>
<path d="M6457 4119 c7 -7 15 -10 18 -7 3 3 -2 9 -12 12 -14 6 -15 5 -6 -5z"/>
<path d="M7664 4101 c0 -21 7 -36 16 -38 10 -3 11 -2 3 4 -6 4 -13 22 -16 38
-4 27 -5 27 -3 -4z"/>
<path d="M4318 4113 c12 -2 30 -2 40 0 9 3 -1 5 -23 4 -22 0 -30 -2 -17 -4z"/>
<path d="M4548 4113 c6 -2 18 -2 25 0 6 3 1 5 -13 5 -14 0 -19 -2 -12 -5z"/>
<path d="M6617 4108 c2 -5 13 -8 23 -8 10 0 21 3 23 8 3 4 -8 7 -23 7 -15 0
-26 -3 -23 -7z"/>
<path d="M7288 4113 c12 -2 30 -2 40 0 9 3 -1 5 -23 4 -22 0 -30 -2 -17 -4z"/>
<path d="M7418 4108 c5 -5 16 -8 23 -6 8 3 3 7 -10 11 -17 4 -21 3 -13 -5z"/>
<path d="M4402 4085 c0 -16 2 -22 5 -12 2 9 2 23 0 30 -3 6 -5 -1 -5 -18z"/>
<path d="M4706 4097 c3 -10 9 -15 12 -12 3 3 0 11 -7 18 -10 9 -11 8 -5 -6z"/>
<path d="M4986 4097 c3 -10 9 -15 12 -12 3 3 0 11 -7 18 -10 9 -11 8 -5 -6z"/>
<path d="M5696 4097 c3 -10 9 -15 12 -12 3 3 0 11 -7 18 -10 9 -11 8 -5 -6z"/>
<path d="M5938 4103 c7 -3 16 -2 19 1 4 3 -2 6 -13 5 -11 0 -14 -3 -6 -6z"/>
<path d="M6497 4089 c4 -13 8 -18 11 -10 2 7 -1 18 -6 23 -8 8 -9 4 -5 -13z"/>
<path d="M4901 4084 c0 -11 3 -14 6 -6 3 7 2 16 -1 19 -3 4 -6 -2 -5 -13z"/>
<path d="M5391 4084 c0 -11 3 -14 6 -6 3 7 2 16 -1 19 -3 4 -6 -2 -5 -13z"/>
<path d="M6154 4080 c1 -8 10 -16 21 -17 15 -1 15 0 3 3 -9 3 -19 11 -21 17
-2 7 -3 5 -3 -3z"/>
<path d="M6314 4080 c1 -8 10 -16 21 -17 15 -1 15 0 3 3 -9 3 -19 11 -21 17
-2 7 -3 5 -3 -3z"/>
<path d="M7564 4080 c1 -8 10 -16 21 -17 15 -1 15 0 3 3 -9 3 -19 11 -21 17
-2 7 -3 5 -3 -3z"/>
<path d="M7621 4084 c0 -11 3 -14 6 -6 3 7 2 16 -1 19 -3 4 -6 -2 -5 -13z"/>
<path d="M4309 4078 c7 -10 23 -17 35 -17 20 1 20 2 1 6 -11 3 -27 10 -35 17
-13 10 -13 9 -1 -6z"/>
<path d="M5063 4080 c2 -8 12 -16 23 -17 13 -2 15 -1 4 4 -8 3 -19 11 -23 17
-6 7 -7 6 -4 -4z"/>
<path d="M5812 4070 c0 -14 2 -19 5 -12 2 6 2 18 0 25 -3 6 -5 1 -5 -13z"/>
<path d="M6051 4074 c0 -11 3 -14 6 -6 3 7 2 16 -1 19 -3 4 -6 -2 -5 -13z"/>
<path d="M7415 4079 c3 -4 18 -9 34 -11 17 -2 28 -1 26 3 -3 4 -18 9 -34 11
-17 2 -28 1 -26 -3z"/>
<path d="M4477 4069 c7 -7 15 -10 18 -7 3 3 -2 9 -12 12 -14 6 -15 5 -6 -5z"/>
<path d="M4848 4068 c5 -5 16 -8 23 -6 8 3 3 7 -10 11 -17 4 -21 3 -13 -5z"/>
<path d="M5338 4068 c5 -5 16 -8 23 -6 8 3 3 7 -10 11 -17 4 -21 3 -13 -5z"/>
<path d="M5916 4072 c-3 -5 8 -6 25 -4 16 2 29 6 29 8 0 8 -49 4 -54 -4z"/>
<path d="M6620 4076 c0 -2 13 -6 29 -8 17 -2 28 -1 25 4 -5 8 -54 12 -54 4z"/>
<path d="M3953 4063 c9 -2 23 -2 30 0 6 3 -1 5 -18 5 -16 0 -22 -2 -12 -5z"/>
<path d="M4048 4063 c7 -3 16 -2 19 1 4 3 -2 6 -13 5 -11 0 -14 -3 -6 -6z"/>
<path d="M4538 4063 c7 -3 16 -2 19 1 4 3 -2 6 -13 5 -11 0 -14 -3 -6 -6z"/>
<path d="M4668 4063 c6 -2 18 -2 25 0 6 3 1 5 -13 5 -14 0 -19 -2 -12 -5z"/>
<path d="M4768 4063 c6 -2 18 -2 25 0 6 3 1 5 -13 5 -14 0 -19 -2 -12 -5z"/>
<path d="M4948 4063 c6 -2 18 -2 25 0 6 3 1 5 -13 5 -14 0 -19 -2 -12 -5z"/>
<path d="M5248 4063 c7 -3 16 -2 19 1 4 3 -2 6 -13 5 -11 0 -14 -3 -6 -6z"/>
<path d="M5292 4045 c0 -16 2 -22 5 -12 2 9 2 23 0 30 -3 6 -5 -1 -5 -18z"/>
<path d="M5578 4063 c7 -3 16 -2 19 1 4 3 -2 6 -13 5 -11 0 -14 -3 -6 -6z"/>
<path d="M5658 4063 c6 -2 18 -2 25 0 6 3 1 5 -13 5 -14 0 -19 -2 -12 -5z"/>
<path d="M5848 4063 c7 -3 16 -2 19 1 4 3 -2 6 -13 5 -11 0 -14 -3 -6 -6z"/>
<path d="M6088 4063 c7 -3 16 -2 19 1 4 3 -2 6 -13 5 -11 0 -14 -3 -6 -6z"/>
<path d="M6458 4063 c6 -2 18 -2 25 0 6 3 1 5 -13 5 -14 0 -19 -2 -12 -5z"/>
<path d="M6778 4063 c7 -3 16 -2 19 1 4 3 -2 6 -13 5 -11 0 -14 -3 -6 -6z"/>
<path d="M7158 4063 c6 -2 18 -2 25 0 6 3 1 5 -13 5 -14 0 -19 -2 -12 -5z"/>
<path d="M7298 4063 c6 -2 18 -2 25 0 6 3 1 5 -13 5 -14 0 -19 -2 -12 -5z"/>
<path d="M7768 4063 c6 -2 18 -2 25 0 6 3 1 5 -13 5 -14 0 -19 -2 -12 -5z"/>
<path d="M6601 4044 c0 -11 3 -14 6 -6 3 7 2 16 -1 19 -3 4 -6 -2 -5 -13z"/>
<path d="M5928 4023 c6 -2 18 -2 25 0 6 3 1 5 -13 5 -14 0 -19 -2 -12 -5z"/>
<path d="M6628 4023 c6 -2 18 -2 25 0 6 3 1 5 -13 5 -14 0 -19 -2 -12 -5z"/>
<path d="M7428 4023 c6 -2 18 -2 25 0 6 3 1 5 -13 5 -14 0 -19 -2 -12 -5z"/>
<path d="M2220 3260 l0 -450 2195 0 2195 0 0 395 c0 271 3 395 11 395 5 0 8 4
5 9 -3 5 1 12 10 15 9 3 197 6 419 6 356 0 405 -2 420 -16 14 -14 15 -59 15
-367 0 -194 0 -371 0 -394 l0 -43 1005 0 1005 0 0 450 0 450 -1493 0 c-1201 0
-1497 -3 -1511 -13 -12 -9 -17 -23 -14 -42 2 -24 8 -31 31 -33 l27 -3 0 -303
c0 -231 -3 -306 -12 -313 -7 -6 -41 -11 -75 -12 l-63 -2 6 30 c8 37 -9 61 -42
61 -29 0 -47 -31 -38 -65 l6 -25 -249 0 c-180 0 -252 3 -261 12 -9 9 -12 77
-12 245 l0 232 24 24 c28 28 25 63 -5 72 -16 5 -19 16 -19 71 l0 64 -1790 0
-1790 0 0 -450z m3452 333 c6 -7 20 -13 32 -13 18 0 16 -3 -11 -20 -18 -11
-33 -27 -33 -36 0 -11 -8 -7 -29 15 -16 17 -35 31 -43 32 -7 1 -2 4 12 8 14 4
32 20 40 36 12 26 15 28 18 10 2 -11 9 -26 14 -32z m-3086 -18 c4 -8 3 -23 -2
-32 -6 -15 -8 -13 -12 10 -2 15 -9 27 -17 27 -22 0 -55 -50 -55 -85 0 -68 57
-70 90 -4 17 33 25 39 51 39 31 0 31 0 24 -42 -7 -38 -6 -41 8 -30 9 8 19 27
22 43 4 16 10 29 15 29 15 0 19 -28 8 -57 -10 -27 -15 -29 -64 -30 -30 0 -57
3 -60 9 -3 5 -14 2 -24 -7 -44 -40 -111 9 -96 69 14 58 96 102 112 61z m284
-52 c0 -24 1 -25 18 -10 9 9 31 15 48 15 31 -1 31 -2 23 -32 -12 -40 -12 -39
7 -32 10 4 14 1 12 -6 -3 -8 -22 -13 -49 -13 -38 0 -44 3 -47 23 -4 29 -16 28
-36 -3 -9 -14 -21 -25 -26 -25 -16 0 -32 41 -26 66 9 36 26 29 26 -11 0 -19 4
-35 9 -35 13 0 21 27 15 45 -8 19 2 45 16 45 5 0 10 -12 10 -27z m-103 -29
c-5 -31 -4 -35 11 -29 16 6 16 5 0 -11 -22 -23 -41 -8 -34 27 3 17 1 29 -5 29
-6 0 -7 5 -4 10 3 6 13 10 22 10 12 0 14 -7 10 -36z m6485 -131 c25 -23 27
-187 1 -215 -15 -17 -47 -18 -611 -18 -540 0 -597 2 -614 17 -25 23 -27 187
-1 215 15 17 47 18 611 18 540 0 597 -2 614 -17z m-6525 -80 c23 -56 -6 -113
-59 -113 -55 0 -87 67 -57 121 25 48 94 43 116 -8z m93 -3 c0 -33 -31 -50 -55
-30 -20 17 -19 57 2 69 27 14 53 -5 53 -39z m-240 30 c0 -5 -18 -10 -40 -10
-31 0 -40 -4 -40 -17 0 -14 8 -18 37 -18 36 0 38 -2 41 -33 2 -18 -2 -40 -9
-48 -15 -18 -60 -18 -85 0 -26 20 -10 32 23 17 21 -10 29 -9 40 2 8 7 11 21 7
30 -7 18 -39 23 -49 7 -14 -22 -30 2 -27 40 l4 40 49 0 c27 0 49 -4 49 -10z
m313 -3 c-29 -49 -100 -136 -111 -137 -16 0 -12 6 48 88 25 34 51 62 58 62 8
0 10 -5 5 -13z m207 -62 c0 -60 -3 -75 -15 -75 -8 0 -15 5 -15 12 0 9 -3 9
-12 0 -7 -7 -21 -12 -33 -12 -30 0 -45 19 -45 56 0 52 47 83 78 52 9 -9 12 -6
12 15 0 17 5 27 15 27 12 0 15 -15 15 -75z m300 0 c0 -43 -4 -75 -10 -75 -5 0
-10 5 -10 10 0 6 -7 6 -18 -1 -26 -16 -69 -4 -77 22 -17 53 29 103 74 80 19
-11 21 -9 21 14 0 14 5 25 10 25 6 0 10 -32 10 -75z m680 55 c0 -5 9 -10 20
-10 11 0 20 -7 20 -15 0 -8 -9 -15 -21 -15 -17 0 -20 -5 -17 -32 3 -28 7 -33
26 -30 31 3 24 -22 -7 -26 -32 -5 -51 15 -51 54 0 18 -4 36 -10 39 -6 4 -5 13
3 25 12 21 37 27 37 10z m-868 -27 c10 -9 18 -24 18 -35 0 -15 -8 -18 -46 -18
-40 0 -45 -2 -34 -15 14 -17 46 -20 55 -5 4 6 11 8 16 4 16 -10 -11 -34 -38
-34 -43 0 -63 18 -63 55 0 54 54 83 92 48z m299 7 c11 -6 19 -21 19 -35 0 -22
-4 -25 -40 -25 -22 0 -40 -4 -40 -9 0 -16 38 -23 61 -11 18 10 20 9 17 -7 -5
-29 -72 -30 -92 -1 -21 30 -20 54 4 78 22 22 42 25 71 10z m118 1 c7 -5 10
-14 6 -20 -5 -9 -10 -9 -21 0 -16 13 -48 4 -39 -11 3 -5 17 -10 29 -10 33 0
50 -23 36 -49 -13 -24 -71 -29 -89 -8 -15 19 -2 28 21 16 21 -11 53 -5 44 10
-3 4 -19 11 -36 14 -20 5 -30 12 -30 25 0 36 45 55 79 33z m121 -6 c17 -20 7
-29 -17 -17 -40 22 -73 -29 -38 -58 13 -11 20 -11 40 0 31 16 42 8 20 -14 -37
-37 -98 -9 -98 44 0 52 62 82 93 45z m123 3 c28 -22 32 -63 8 -87 -42 -42
-104 -18 -104 39 0 51 55 79 96 48z m67 2 c0 -6 10 -5 25 2 37 17 55 -4 55
-63 0 -27 -4 -49 -10 -49 -5 0 -10 15 -10 33 0 18 -6 42 -14 52 -21 29 -46 3
-46 -46 0 -28 -4 -39 -15 -39 -11 0 -15 13 -15 53 0 30 3 57 7 60 10 10 23 8
23 -3z m300 -10 c39 -39 14 -100 -41 -100 -56 0 -82 73 -37 104 30 21 54 20
78 -4z m100 10 c0 -6 10 -5 25 2 37 17 55 -4 55 -63 0 -27 -4 -49 -10 -49 -5
0 -10 17 -10 39 0 21 -6 44 -14 50 -21 17 -46 -13 -46 -55 0 -19 -4 -34 -10
-34 -6 0 -10 27 -10 60 0 33 4 60 10 60 6 0 10 -4 10 -10z m198 -6 c26 -18 30
-65 6 -88 -36 -37 -104 -7 -104 45 0 29 31 59 60 59 9 0 26 -7 38 -16z m-1618
-44 c22 -40 -26 -80 -58 -48 -13 13 -16 50 -5 61 14 14 53 6 63 -13z m-325
-133 c28 -21 10 -40 -20 -21 -46 30 -92 -23 -61 -71 19 -29 60 -33 75 -7 7 12
13 14 21 6 18 -18 -37 -57 -70 -49 -45 11 -65 42 -61 98 3 46 75 73 116 44z
m689 -3 c19 -18 21 -55 4 -72 -7 -7 -27 -12 -45 -12 -29 0 -33 -3 -33 -25 0
-16 -6 -25 -15 -25 -12 0 -15 15 -15 75 l0 75 44 0 c27 0 51 -6 60 -16z m817
0 c10 -12 10 -20 1 -34 -7 -12 -8 -21 -2 -25 6 -3 10 -20 10 -36 0 -48 -67
-63 -101 -23 -15 18 -3 32 13 16 15 -15 55 -16 64 -1 8 13 -7 29 -32 33 -29 4
-29 26 0 26 16 0 26 6 26 14 0 22 -17 28 -40 16 -28 -15 -49 -1 -25 17 25 18
70 17 86 -3z m-1384 -36 c6 -7 13 -33 16 -56 5 -41 4 -44 -16 -38 -11 3 -27 0
-33 -5 -7 -6 -23 -8 -34 -4 -35 11 -23 58 18 70 17 5 32 13 32 17 0 12 -38 10
-46 -3 -4 -8 -9 -8 -18 1 -8 8 -7 13 4 20 21 14 66 12 77 -2z m63 0 c0 -9 3
-9 12 0 21 21 58 14 68 -14 15 -39 13 -84 -5 -84 -11 0 -15 11 -15 40 0 28 -5
43 -16 47 -22 8 -44 -22 -44 -59 0 -15 -4 -28 -10 -28 -5 0 -10 25 -10 55 0
30 5 55 10 55 6 0 10 -5 10 -12z m139 -23 c7 -19 16 -35 20 -35 4 0 13 16 20
35 7 19 19 35 28 35 8 0 13 -6 10 -12 -34 -87 -41 -98 -57 -98 -12 0 -25 17
-39 49 -25 58 -25 61 -8 61 7 0 19 -16 26 -35z m185 19 c3 -9 6 -28 6 -43 0
-15 6 -33 13 -40 10 -11 7 -13 -17 -8 -16 3 -37 0 -47 -6 -13 -8 -22 -7 -34 3
-26 21 -15 53 23 64 17 5 32 13 32 17 0 13 -38 11 -46 -2 -4 -8 -9 -8 -18 1
-8 8 -7 13 4 20 24 16 77 12 84 -6z m238 6 c6 -20 -4 -100 -13 -100 -5 0 -9
25 -9 55 0 48 12 74 22 45z m58 -4 c0 -8 -4 -18 -10 -21 -5 -3 -10 -1 -10 4 0
6 -7 11 -15 11 -8 0 -15 5 -15 10 0 6 11 10 25 10 15 0 25 -6 25 -14z m118 2
c22 -22 15 -76 -12 -93 -60 -39 -130 39 -80 89 18 19 75 21 92 4z m103 0 c0
-7 2 -26 2 -43 2 -25 7 -31 29 -33 19 -2 28 2 33 18 8 25 -10 50 -36 50 -11 0
-19 5 -19 10 0 14 54 12 68 -2 13 -13 16 -67 4 -84 -12 -18 -42 -25 -62 -14
-15 8 -19 6 -22 -10 -2 -12 -7 -22 -13 -23 -6 -1 -11 29 -13 71 -2 59 0 72 13
72 8 0 15 -6 16 -12z m211 -5 c52 -47 -18 -127 -77 -89 -28 18 -35 72 -13 94
17 17 68 15 90 -5z m60 5 c7 -21 -3 -98 -13 -98 -5 0 -9 25 -9 55 0 51 12 73
22 43z m58 -2 c0 -8 -4 -18 -10 -21 -5 -3 -10 -1 -10 4 0 6 -7 11 -16 11 -8 0
-12 5 -9 10 9 15 45 12 45 -4z m252 4 c8 -26 -5 -100 -18 -100 -10 0 -14 15
-14 55 0 41 4 55 14 55 8 0 16 -5 18 -10z m64 -1 c4 -8 9 -8 17 0 16 16 54 13
61 -5 3 -9 6 -33 6 -55 0 -28 -4 -39 -15 -39 -11 0 -15 12 -15 46 0 38 -3 45
-17 42 -12 -2 -21 -18 -27 -46 -12 -53 -26 -54 -26 -1 0 32 -4 42 -20 46 -11
3 -20 9 -20 14 0 13 48 11 56 -2z m204 -8 c17 -33 11 -41 -30 -41 -30 0 -40
-4 -40 -16 0 -12 8 -15 34 -13 45 4 57 -7 21 -21 -41 -16 -79 6 -83 48 -2 18
2 40 9 48 18 21 76 18 89 -5z m108 2 c2 -9 -5 -11 -27 -7 -41 9 -40 -11 2 -22
22 -7 33 -17 35 -32 5 -30 -33 -47 -71 -33 -40 15 -34 33 8 25 44 -8 48 12 4
21 -35 8 -47 29 -28 51 14 18 70 15 77 -3z m120 5 c7 -7 12 -20 12 -30 0 -14
-8 -18 -41 -18 -28 0 -39 -4 -36 -12 2 -8 19 -13 41 -12 40 1 47 -10 16 -26
-58 -31 -121 48 -74 94 18 19 65 21 82 4z m112 -3 c-3 -5 -17 -9 -32 -7 -39 4
-35 -12 4 -23 38 -11 49 -42 22 -62 -28 -20 -95 2 -79 27 5 8 10 8 20 0 8 -6
24 -10 37 -7 21 3 19 5 -14 20 -36 16 -49 43 -31 61 11 11 79 2 73 -9z m4452
-116 c7 -1 2 -4 -12 -8 -14 -4 -32 -20 -40 -36 -12 -26 -15 -28 -18 -10 -6 29
-22 45 -46 45 -18 0 -16 3 12 20 17 11 32 27 32 36 0 11 8 7 29 -15 16 -17 35
-31 43 -32z"/>
<path d="M2620 3497 c-14 -29 -7 -48 11 -30 6 6 9 21 7 34 l-4 24 -14 -28z"/>
<path d="M2851 3524 c0 -11 3 -14 6 -6 3 7 2 16 -1 19 -3 4 -6 -2 -5 -13z"/>
<path d="M2909 3496 c-9 -20 -10 -29 -1 -38 8 -8 14 -4 22 17 15 39 -4 58 -21
21z"/>
<path d="M8180 3250 c0 -32 4 -40 19 -40 27 0 40 21 34 53 -4 20 -11 27 -29
27 -21 0 -24 -5 -24 -40z m40 20 c0 -5 -7 -10 -15 -10 -8 0 -15 5 -15 10 0 6
7 10 15 10 8 0 15 -4 15 -10z m0 -35 c0 -8 -7 -15 -15 -15 -8 0 -15 7 -15 15
0 8 7 15 15 15 8 0 15 -7 15 -15z"/>
<path d="M8587 3283 c-12 -12 -7 -50 8 -63 16 -14 45 -7 45 11 0 9 -3 9 -14 0
-10 -9 -16 -8 -26 4 -17 21 -5 49 20 42 11 -3 20 -1 20 4 0 10 -43 12 -53 2z"/>
<path d="M8940 3254 c0 -31 2 -34 15 -21 8 9 20 17 27 19 19 7 1 38 -22 38
-16 0 -20 -6 -20 -36z m38 14 c-6 -18 -28 -21 -28 -4 0 9 7 16 16 16 9 0 14
-5 12 -12z"/>
<path d="M8263 3263 c18 -5 18 -5 0 -18 -15 -11 -16 -16 -5 -27 11 -11 12 -10
7 5 -4 9 -4 17 0 17 4 0 14 -8 22 -17 14 -17 14 -17 9 0 -3 10 -6 25 -6 33 0
8 -9 14 -22 13 -19 -1 -19 -2 -5 -6z"/>
<path d="M8312 3245 c0 -16 2 -22 5 -12 2 9 2 23 0 30 -3 6 -5 -1 -5 -18z"/>
<path d="M8344 3237 c-1 -16 2 -24 6 -17 4 7 12 10 18 6 5 -3 10 5 10 17 0 35
-33 30 -34 -6z"/>
<path d="M8400 3246 c0 -30 17 -43 33 -26 9 10 9 11 0 6 -6 -3 -14 -2 -18 4
-3 6 3 10 15 10 28 0 21 24 -8 28 -18 3 -22 -2 -22 -22z m37 8 c-3 -3 -12 -4
-19 -1 -8 3 -5 6 6 6 11 1 17 -2 13 -5z"/>
<path d="M8487 3256 c-3 -8 1 -22 8 -33 13 -17 15 -17 31 -1 9 9 14 24 11 32
-8 20 -43 21 -50 2z m41 -13 c-5 -25 -28 -28 -28 -4 0 12 6 21 16 21 9 0 14
-7 12 -17z"/>
<path d="M8675 3260 c16 -7 17 -9 3 -9 -21 -1 -33 -20 -21 -32 16 -16 43 1 43
27 0 18 -5 24 -22 23 -22 0 -22 -1 -3 -9z m15 -24 c0 -3 -4 -8 -10 -11 -5 -3
-10 -1 -10 4 0 6 5 11 10 11 6 0 10 -2 10 -4z"/>
<path d="M8721 3238 c2 -31 2 -31 6 -5 5 33 30 36 36 5 4 -20 4 -19 6 5 1 23
-3 27 -24 27 -22 0 -25 -4 -24 -32z"/>
<path d="M8792 3238 c10 -29 12 -30 25 -13 7 11 13 26 12 34 0 9 -5 5 -11 -9
l-10 -25 -9 23 c-13 34 -19 26 -7 -10z"/>
<path d="M8865 3260 c16 -7 17 -9 3 -9 -21 -1 -33 -20 -21 -32 16 -16 43 1 43
27 0 18 -5 24 -22 23 -22 0 -22 -1 -3 -9z m15 -24 c0 -3 -4 -8 -10 -11 -5 -3
-10 -1 -10 4 0 6 5 11 10 11 6 0 10 -2 10 -4z"/>
<path d="M9001 3243 c0 -16 3 -21 6 -13 3 8 12 21 21 28 14 10 13 12 -6 12
-18 0 -22 -6 -21 -27z"/>
<path d="M9047 3256 c-3 -8 1 -22 8 -33 13 -17 15 -17 31 -1 9 9 14 24 11 32
-8 20 -43 21 -50 2z m41 -13 c-5 -25 -28 -28 -28 -4 0 12 6 21 16 21 9 0 14
-7 12 -17z"/>
<path d="M2642 3288 c-21 -21 -15 -76 10 -89 18 -10 24 -8 40 11 21 25 22 43
8 71 -12 21 -40 25 -58 7z"/>
<path d="M2774 3296 c-6 -17 2 -36 17 -36 12 0 12 37 -1 45 -6 3 -13 -1 -16
-9z"/>
<path d="M3016 3254 c-20 -19 -20 -25 -2 -50 12 -15 18 -17 33 -8 23 14 28 41
13 59 -16 19 -25 19 -44 -1z"/>
<path d="M3322 3258 c-7 -7 -12 -22 -12 -34 0 -31 39 -43 57 -18 17 23 16 29
-3 48 -19 19 -26 20 -42 4z"/>
<path d="M3157 3264 c-14 -14 -6 -24 19 -24 16 0 24 5 22 13 -5 14 -31 21 -41
11z"/>
<path d="M3463 3263 c-24 -9 -13 -23 18 -23 27 0 30 2 19 15 -13 16 -17 17
-37 8z"/>
<path d="M3810 3255 c-26 -31 13 -82 44 -56 22 18 20 48 -3 61 -25 13 -26 13
-41 -5z"/>
<path d="M4176 3254 c-19 -19 -20 -25 -3 -48 18 -24 51 -17 55 12 3 23 -13 52
-29 52 -4 0 -15 -7 -23 -16z"/>
<path d="M4482 3261 c-8 -5 -12 -21 -10 -37 4 -35 35 -45 55 -18 17 23 16 29
-3 48 -18 18 -24 19 -42 7z"/>
<path d="M2875 3220 c-7 -12 2 -30 16 -30 5 0 9 9 9 20 0 21 -15 27 -25 10z"/>
<path d="M3210 3059 c0 -27 3 -30 28 -27 19 2 28 9 30 26 2 12 0 22 -5 23 -4
0 -18 2 -30 5 -20 3 -23 0 -23 -27z"/>
<path d="M2660 3000 c-13 -9 -13 -11 -1 -19 18 -12 41 -3 41 15 0 16 -18 18
-40 4z"/>
<path d="M3040 3000 c-13 -9 -13 -11 -1 -19 18 -12 41 -3 41 15 0 16 -18 18
-40 4z"/>
<path d="M3444 3036 c-11 -28 1 -51 27 -54 31 -4 44 19 29 49 -12 22 -48 25
-56 5z"/>
<path d="M3761 3036 c-21 -25 -4 -58 27 -54 23 2 27 8 27 33 0 23 -5 31 -21
33 -11 2 -26 -4 -33 -12z"/>
<path d="M4400 3037 c0 -7 11 -14 25 -15 16 -1 25 3 25 13 0 9 -10 15 -25 15
-14 0 -25 -6 -25 -13z"/>
<path d="M4637 3043 c-13 -12 -7 -19 18 -21 16 -1 25 3 25 13 0 15 -31 21 -43
8z"/>
<path d="M6886 3572 c-2 -4 4 -8 14 -8 10 0 16 4 14 8 -3 4 -9 8 -14 8 -5 0
-11 -4 -14 -8z"/>
<path d="M6667 3382 c-12 -2 -16 -20 -19 -76 -3 -70 -2 -72 20 -68 17 3 22 11
22 33 0 16 5 29 10 29 6 0 10 7 10 15 0 8 -5 15 -11 15 -5 0 -7 5 -4 10 14 23
24 6 27 -47 3 -58 3 -58 33 -55 17 2 32 8 34 14 2 6 7 5 11 -3 15 -23 51 -18
61 9 11 28 3 62 -14 62 -7 0 -4 5 6 11 24 14 5 49 -28 49 -28 0 -41 -30 -26
-59 8 -15 7 -20 -5 -25 -8 -3 -12 -10 -9 -16 3 -5 -1 -10 -9 -10 -20 0 -20 7
0 28 15 14 15 17 -2 29 -18 13 -18 15 -1 24 9 6 17 14 17 19 0 8 -94 18 -123
12z"/>
<path d="M6872 3372 c-3 -9 0 -18 6 -20 7 -2 12 -26 12 -63 0 -48 3 -57 15
-53 11 5 15 21 15 60 0 30 5 54 10 54 6 0 10 6 10 14 0 20 -60 27 -68 8z"/>
<path d="M6950 3356 c0 -13 -3 -44 -6 -70 l-7 -46 42 0 c25 0 41 5 41 12 0 9
3 9 12 0 19 -19 56 -14 63 8 3 11 11 20 18 20 8 0 8 -3 -1 -12 -18 -18 -15
-28 8 -28 20 0 21 2 20 84 -1 22 5 43 12 47 8 6 2 9 -18 9 -30 0 -30 0 -27
-47 3 -44 2 -46 -12 -29 -11 14 -12 23 -4 33 20 23 2 45 -33 41 -35 -3 -40
-15 -27 -55 6 -15 3 -23 -7 -27 -11 -4 -14 4 -14 39 0 43 -1 45 -30 45 -25 0
-30 -4 -30 -24z"/>
<path d="M7020 3210 c-12 -7 -10 -9 7 -7 12 0 19 5 17 9 -6 10 -6 10 -24 -2z"/>
<path d="M6650 3171 c0 -10 6 -24 14 -30 11 -9 15 -7 18 7 3 12 -2 23 -13 31
-16 9 -19 8 -19 -8z"/>
<path d="M7310 3179 c0 -4 11 -36 25 -73 23 -61 23 -70 3 -67 -5 0 -8 -4 -8
-9 0 -7 -6 -7 -19 0 -11 5 -30 10 -43 10 -22 1 -22 1 -4 12 14 8 24 8 39 -2
16 -10 19 -10 15 2 -3 7 -14 39 -24 71 l-19 57 -187 -1 -188 0 0 -44 c0 -30
-5 -45 -16 -49 -8 -3 -13 -10 -10 -14 3 -5 -5 -7 -18 -5 -13 3 -27 0 -30 -6
-5 -7 4 -11 24 -11 32 0 102 -54 79 -62 -9 -3 -10 -12 -1 -35 6 -18 8 -42 4
-55 -6 -23 -5 -23 31 5 42 32 54 22 37 -29 -10 -29 -16 -35 -34 -32 -12 3 -27
-1 -34 -8 -16 -17 -15 -24 3 -24 8 0 15 6 15 13 0 8 3 8 8 1 11 -15 81 -13 75
3 -4 11 14 18 39 14 13 -1 19 39 9 56 -8 14 -11 15 -11 3 -1 -8 -6 -4 -12 10
-6 14 -10 35 -9 47 3 31 -27 91 -53 105 -11 7 -37 15 -56 19 l-35 7 38 1 c20
0 37 5 37 10 0 5 10 7 22 3 20 -5 21 -6 3 -12 -17 -6 6 -11 178 -36 39 -6 52
-24 16 -24 -16 0 -20 -5 -16 -20 4 -16 2 -18 -13 -10 -17 9 -30 4 -30 -12 0
-5 4 -7 9 -3 6 3 9 -3 9 -12 0 -10 3 -27 8 -38 6 -14 -1 -11 -26 12 -30 28
-33 34 -22 57 6 13 21 27 34 29 13 3 5 5 -17 5 -22 0 -51 3 -65 7 -24 7 -24 7
-5 -8 11 -8 23 -13 27 -11 5 3 8 1 8 -5 0 -5 -5 -11 -11 -13 -18 -6 -2 -41 29
-62 16 -11 28 -27 28 -39 -1 -20 29 -33 39 -17 3 5 19 6 35 4 23 -4 30 -1 30
10 0 9 5 16 11 16 5 0 8 -4 4 -10 -3 -5 8 -16 25 -25 23 -12 30 -22 30 -45 0
-29 2 -30 43 -30 42 0 42 0 42 37 0 30 4 38 18 37 10 -1 17 5 17 17 0 11 5 19
12 19 6 0 4 8 -6 19 -10 11 -16 28 -14 38 2 12 -5 22 -22 30 -25 12 -25 12 8
9 l32 -4 0 86 0 87 -70 0 c-38 0 -70 -3 -70 -6z m-347 -76 c-7 -2 -21 -2 -30
0 -10 3 -4 5 12 5 17 0 24 -2 18 -5z m187 -23 c24 -8 24 -8 -5 -8 -16 0 -41 4
-55 8 -24 8 -24 8 5 8 17 0 41 -4 55 -8z m159 -64 c10 -12 8 -14 -11 -9 -14 3
-18 1 -11 -4 6 -4 11 -25 11 -46 0 -31 -2 -36 -14 -26 -8 6 -11 16 -8 21 3 5
-1 15 -10 21 -10 8 -14 20 -10 35 7 25 35 29 53 8z m61 -17 c0 -12 -6 -16 -20
-12 -29 8 -26 30 5 30 8 0 15 -8 15 -18z m-153 -61 c-3 -8 -6 -5 -6 6 -1 11 2
17 5 13 3 -3 4 -12 1 -19z m38 2 c3 -5 2 -10 -4 -10 -5 0 -13 5 -16 10 -3 6
-2 10 4 10 5 0 13 -4 16 -10z"/>
<path d="M6807 3173 c-15 -2 -25 -9 -22 -14 4 -5 0 -9 -7 -10 -12 0 77 -28 95
-29 4 0 7 7 7 16 0 17 -24 45 -37 43 -4 -1 -20 -4 -36 -6z m20 -19 c-3 -3 -12
-4 -19 -1 -8 3 -5 6 6 6 11 1 17 -2 13 -5z"/>
<path d="M6713 3153 c9 -2 25 -2 35 0 9 3 1 5 -18 5 -19 0 -27 -2 -17 -5z"/>
<path d="M6800 3116 c0 -2 7 -7 16 -10 8 -3 12 -2 9 4 -6 10 -25 14 -25 6z"/>
<path d="M6825 2890 c-3 -5 -2 -10 4 -10 5 0 13 5 16 10 3 6 2 10 -4 10 -5 0
-13 -4 -16 -10z"/>
<path d="M7106 2851 c-35 -36 -29 -50 9 -25 21 13 28 15 34 5 6 -10 10 -9 14
3 4 10 1 16 -8 16 -7 0 -15 7 -17 16 -2 12 -10 8 -32 -15z"/>
<path d="M6727 2842 c-30 -32 -20 -40 28 -22 23 9 25 12 11 25 -18 19 -19 19
-39 -3z"/>
<path d="M410 1630 l0 -1120 5450 0 5450 0 0 1120 0 1120 -5450 0 -5450 0 0
-1120z m5600 895 c0 -54 0 -55 -29 -55 -21 0 -32 6 -36 20 -10 33 4 60 31 60
15 0 24 6 24 15 0 8 2 15 5 15 3 0 5 -25 5 -55z m-685 36 c-26 -5 -30 -10 -30
-41 0 -31 4 -36 30 -41 28 -6 28 -7 5 -8 -33 -1 -50 16 -50 49 0 33 17 50 50
49 23 -1 23 -2 -5 -8z m101 -36 c7 -29 -10 -55 -37 -55 -21 0 -33 31 -24 60
10 30 53 27 61 -5z m76 13 c4 -7 7 -26 7 -43 -2 -29 -2 -29 -8 5 -9 50 -41 55
-41 6 0 -20 -4 -36 -10 -36 -5 0 -10 17 -10 38 0 34 3 38 27 40 15 1 30 -4 35
-10z m32 -19 l13 -31 11 31 c6 17 13 31 16 31 3 0 1 -12 -5 -27 -5 -16 -12
-34 -15 -42 -2 -8 -6 -12 -9 -9 -9 8 -35 78 -30 78 3 0 12 -14 19 -31z m104
19 c20 -20 14 -28 -19 -28 -36 0 -35 -21 2 -31 21 -6 21 -7 4 -8 -25 -1 -45
17 -45 39 0 18 19 40 35 40 6 0 16 -5 23 -12z m50 0 c-9 -7 -19 -26 -21 -43
-3 -24 -4 -21 -6 13 -1 37 2 42 21 42 19 0 20 -1 6 -12z m55 5 c-28 -5 -30
-20 -3 -28 11 -3 20 -15 20 -26 0 -14 -7 -19 -27 -18 -24 2 -25 2 -5 6 28 6
28 17 0 35 -25 17 -17 39 15 37 22 -2 22 -2 0 -6z m92 -33 c0 -38 -24 -52 -50
-30 -31 25 -9 73 30 68 16 -2 20 -11 20 -38z m53 33 c-11 -3 -18 -17 -21 -41
l-4 -37 -1 43 c-2 38 0 42 21 41 16 -1 17 -3 5 -6z m190 -15 c3 -14 -3 -18
-23 -18 -33 0 -29 -22 6 -31 24 -7 24 -7 -3 -8 -30 -1 -44 25 -33 60 8 25 48
23 53 -3z m72 -18 c0 -22 -4 -40 -10 -40 -5 0 -10 18 -10 40 0 22 5 40 10 40
6 0 10 -18 10 -40z m117 -5 l1 -40 -6 35 c-4 22 -13 35 -22 35 -9 0 -17 -13
-21 -35 l-6 -35 -2 38 c-1 51 -31 53 -31 2 0 -19 -4 -35 -10 -35 -5 0 -10 18
-10 40 l0 40 53 -3 52 -2 2 -40z m71 2 c3 -37 2 -38 -25 -35 -36 4 -40 41 -5
46 12 2 22 7 22 12 0 5 -10 11 -22 13 -20 5 -20 5 2 4 21 -2 25 -7 28 -40z
m72 22 c0 -12 -8 -23 -20 -26 -25 -7 -26 -23 -2 -23 10 0 22 -3 25 -7 11 -11
-14 -33 -38 -33 -20 0 -22 4 -20 53 2 28 3 53 4 55 0 1 12 2 26 2 19 0 25 -5
25 -21z m70 17 c0 -2 3 -11 6 -20 5 -12 0 -16 -20 -16 -31 0 -36 -26 -6 -33
17 -4 16 -4 -2 -3 -40 2 -38 76 2 76 11 0 20 -2 20 -4z m127 -41 l1 -40 -6 35
c-4 22 -13 35 -22 35 -9 0 -17 -13 -21 -35 l-6 -35 -2 38 c-1 51 -31 53 -31 2
0 -19 -4 -35 -10 -35 -5 0 -10 18 -10 40 l0 40 53 -3 52 -2 2 -40z m103 -982
c0 -204 -17 -243 -107 -243 -43 0 -43 0 -43 36 0 21 4 33 10 29 6 -3 19 -3 30
0 19 6 20 15 20 161 l0 154 45 0 45 0 0 -137z m213 126 c29 -13 47 -48 47 -90
0 -44 -48 -89 -94 -89 l-36 0 0 -50 0 -50 -40 0 -40 0 0 145 0 145 70 0 c38 0
80 -5 93 -11z m313 -1 c4 -4 1 -20 -5 -36 -11 -27 -14 -28 -65 -24 -47 4 -55
2 -70 -19 -21 -30 -21 -87 1 -111 23 -26 73 -24 73 2 0 15 -7 20 -25 20 -21 0
-25 5 -25 30 l0 30 65 0 65 0 0 -75 c0 -72 -1 -76 -26 -85 -39 -15 -131 -12
-165 6 -89 45 -85 213 5 259 31 16 157 18 172 3z m2258 2 c23 -8 24 -12 14
-40 -9 -28 -14 -31 -37 -24 -78 21 -93 -5 -22 -40 79 -40 94 -94 42 -147 -26
-25 -37 -29 -88 -29 -72 0 -96 15 -91 55 2 21 8 29 18 26 70 -17 80 -18 97 -6
15 11 11 15 -35 39 -57 29 -72 49 -72 99 0 33 18 58 50 70 25 9 97 8 124 -3z
m140 -67 c10 -43 21 -84 25 -90 4 -7 17 28 30 77 l23 90 44 0 c24 0 44 -3 44
-7 0 -5 -20 -69 -43 -143 l-43 -135 -50 -3 -51 -3 -11 38 c-7 21 -27 86 -46
146 l-34 107 47 0 47 0 18 -77z m422 65 c4 -4 1 -20 -5 -36 -11 -27 -14 -28
-65 -24 -47 4 -55 2 -70 -19 -21 -30 -21 -87 1 -111 23 -26 73 -24 73 2 0 15
-7 20 -25 20 -21 0 -25 5 -25 30 l0 30 65 0 65 0 0 -75 c0 -72 -1 -76 -26 -85
-38 -15 -131 -12 -164 5 -88 46 -85 214 4 260 31 16 157 18 172 3z m-5693 -49
c34 21 44 19 87 -16 2 -2 -9 -15 -25 -28 l-30 -23 28 -13 c34 -15 34 -24 1
-46 -24 -16 -28 -16 -60 2 -33 18 -35 18 -68 0 -32 -18 -36 -18 -60 -2 -33 22
-33 31 2 46 l27 13 -30 25 c-16 14 -25 27 -19 29 6 3 20 11 30 19 17 12 23 11
52 -7 l32 -20 33 21z m665 -38 c36 -67 39 -82 16 -116 -15 -23 -23 -25 -89
-25 -78 0 -100 10 -111 54 -8 32 55 139 73 124 11 -8 12 -7 7 6 -5 13 1 16 33
16 37 0 40 -3 71 -59z m-1328 34 c8 -10 31 -15 66 -15 53 0 54 0 54 -30 0 -16
-4 -30 -10 -30 -5 0 -10 9 -10 20 0 17 -7 20 -49 20 -31 0 -53 5 -61 15 -7 8
-25 15 -41 15 l-29 0 0 -80 0 -80 45 0 c25 0 45 -4 45 -10 0 -5 -25 -10 -55
-10 l-55 0 0 100 0 100 44 0 c26 0 48 -6 56 -15z m-1740 -70 c0 -37 -4 -65
-10 -65 -6 0 -10 28 -10 65 0 37 4 65 10 65 6 0 10 -28 10 -65z m205 55 c3 -5
-1 -10 -9 -10 -9 0 -16 5 -16 10 0 6 4 10 9 10 6 0 13 -4 16 -10z m785 0 c0
-5 -7 -10 -15 -10 -8 0 -15 5 -15 10 0 6 7 10 15 10 8 0 15 -4 15 -10z m5321
-18 c16 -21 20 -36 16 -70 -7 -62 -31 -85 -84 -79 l-43 5 0 -44 c0 -39 -3 -44
-22 -44 -23 0 -23 2 -22 113 1 158 -6 144 69 145 58 1 66 -1 86 -26z m180 18
c16 -9 19 -22 19 -90 0 -64 -3 -80 -15 -80 -8 0 -15 5 -15 10 0 7 -6 7 -19 0
-29 -15 -77 -12 -95 6 -39 38 -1 94 64 94 28 0 40 4 40 14 0 20 -32 28 -63 17
-20 -8 -27 -7 -31 6 -4 9 -1 20 6 25 18 11 86 10 109 -2z m112 -2 c4 -10 7
-10 18 0 21 20 59 15 59 -8 0 -14 -7 -20 -23 -20 -36 0 -47 -19 -47 -82 0 -55
-1 -58 -25 -58 -25 0 -25 1 -25 90 0 82 2 90 19 90 11 0 21 -6 24 -12z m239
-5 c14 -13 18 -31 18 -90 0 -66 -2 -73 -20 -73 -11 0 -20 5 -20 12 0 9 -3 9
-12 0 -7 -7 -28 -12 -48 -12 -43 0 -60 14 -60 51 0 34 32 59 77 59 23 0 33 5
33 15 0 22 -22 28 -54 16 -22 -9 -28 -8 -33 5 -3 9 0 20 8 25 24 15 91 10 111
-8z m-6972 -3 c0 -5 -11 -10 -25 -10 -32 0 -32 -17 0 -32 20 -9 25 -18 23 -37
-3 -22 -9 -26 -40 -29 -22 -2 -38 1 -38 7 0 6 14 11 30 11 36 0 39 16 5 32
-24 11 -34 45 -18 61 10 11 63 8 63 -3z m88 -47 c3 -19 -1 -23 -22 -23 -14 0
-26 -4 -26 -10 0 -5 11 -10 25 -10 14 0 25 -5 25 -11 0 -16 -62 -6 -73 13 -8
12 -7 24 1 43 16 34 65 33 70 -2z m130 0 c3 -19 -1 -23 -22 -23 -14 0 -26 -4
-26 -10 0 -5 11 -10 25 -10 14 0 25 -5 25 -11 0 -16 -62 -6 -73 13 -8 12 -7
24 1 43 16 34 65 33 70 -2z m82 17 c0 -5 -9 -10 -19 -10 -11 0 -21 -6 -24 -12
-7 -21 4 -38 24 -38 10 0 19 -4 19 -10 0 -14 -43 -13 -58 2 -29 29 -7 78 35
78 13 0 23 -4 23 -10z m30 -35 c0 -25 -4 -45 -10 -45 -5 0 -10 20 -10 45 0 25
5 45 10 45 6 0 10 -20 10 -45z m101 24 c17 -34 -3 -69 -40 -69 -33 0 -47 25
-37 66 8 32 60 34 77 3z m97 -26 c2 -26 -1 -43 -7 -43 -6 0 -11 16 -11 35 0
28 -4 35 -20 35 -16 0 -20 -7 -20 -35 0 -19 -4 -35 -10 -35 -5 0 -10 21 -10
46 l0 45 38 -3 c36 -3 37 -4 40 -45z m90 -1 l3 -43 -38 3 c-30 2 -38 7 -38 23
0 14 8 21 28 23 34 4 36 22 2 22 -14 0 -25 5 -25 11 0 6 14 9 33 7 30 -3 32
-6 35 -46z m72 38 c0 -5 -7 -10 -15 -10 -10 0 -15 -11 -15 -35 0 -19 -4 -35
-10 -35 -5 0 -10 20 -10 45 0 41 2 45 25 45 14 0 25 -4 25 -10z m124 -6 c3 -9
6 -29 6 -45 0 -27 -2 -29 -41 -29 -36 0 -40 2 -37 23 2 14 11 23 26 25 27 4
29 22 2 22 -11 0 -20 5 -20 10 0 17 57 12 64 -6z m76 6 c0 -5 -6 -10 -14 -10
-15 0 -26 -21 -26 -51 0 -10 -4 -19 -10 -19 -5 0 -10 20 -10 45 0 43 1 45 30
45 17 0 30 -4 30 -10z m90 -55 c0 -37 -4 -65 -10 -65 -5 0 -10 9 -10 20 0 15
-7 20 -29 20 -29 0 -41 14 -41 49 0 26 21 41 57 41 l33 0 0 -65z m40 31 c0
-19 4 -37 9 -41 12 -7 31 26 31 54 0 12 5 21 10 21 6 0 10 -21 10 -46 l0 -45
-37 3 c-37 3 -38 4 -41 46 -2 25 1 42 7 42 6 0 11 -15 11 -34z m136 2 l7 -33
10 33 c6 17 16 32 23 32 10 0 10 -9 -3 -45 -18 -55 -35 -57 -56 -7 l-15 37 -1
-37 c-1 -27 -6 -38 -16 -38 -11 0 -15 12 -15 45 0 43 1 45 29 45 25 0 31 -5
37 -32z m135 11 c17 -34 -3 -69 -40 -69 -33 0 -47 25 -37 66 8 32 60 34 77 3z
m79 10 c0 -6 -9 -9 -20 -6 -26 7 -25 -7 2 -25 30 -20 18 -48 -22 -48 -16 0
-30 5 -30 11 0 5 8 9 18 8 35 -3 36 2 8 24 -17 14 -26 29 -22 35 9 15 66 16
66 1z m4528 -19 l27 24 -27 -29 -28 -30 -27 30 -28 29 28 -24 27 -23 28 23z
m2760 0 l27 24 -27 -29 -28 -30 -27 30 -28 29 28 -24 27 -23 28 23z m-6690
-22 c7 -7 12 -23 12 -37 0 -13 7 -32 16 -42 9 -10 11 -20 6 -23 -5 -3 -15 1
-22 9 -7 8 -24 15 -39 15 -32 0 -51 16 -51 45 0 27 18 45 45 45 12 0 26 -5 33
-12z m563 -33 c33 -18 31 -28 -10 -49 -25 -13 -30 -13 -56 8 l-29 23 30 16
c36 20 30 20 65 2z m-3068 -472 c-7 -2 -19 -2 -25 0 -7 3 -2 5 12 5 14 0 19
-2 13 -5z m3863 -7 c3 -8 1 -24 -5 -35 -7 -13 -8 -22 -1 -26 13 -8 13 -25 1
-25 -5 0 -13 9 -16 20 -3 11 -11 20 -16 20 -5 0 -9 -9 -9 -20 0 -11 -4 -20
-10 -20 -5 0 -10 23 -10 50 0 49 1 50 30 50 17 0 33 -6 36 -14z m273 -14 c-12
-5 -12 -62 0 -62 5 0 11 9 14 20 3 12 14 20 26 20 28 0 27 17 -1 23 -21 4 -20
4 3 6 28 1 39 -14 39 -55 0 -22 -4 -24 -50 -23 -28 1 -50 6 -50 12 0 7 -4 7
-12 -1 -7 -7 -23 -11 -37 -11 -24 2 -24 2 -3 6 27 5 29 20 2 28 -11 3 -20 15
-20 26 0 15 7 19 35 19 19 0 35 5 35 10 0 6 6 5 14 -2 8 -7 10 -14 5 -16z
m-2131 -17 c-3 -3 -9 2 -12 12 -6 14 -5 15 5 6 7 -7 10 -15 7 -18z m1930 3 c3
-14 -3 -18 -23 -18 -33 0 -29 -21 6 -32 22 -6 21 -7 -6 -5 -23 2 -31 7 -33 25
-2 13 -1 30 2 38 8 21 50 14 54 -8z m102 -18 c0 -22 -4 -40 -10 -40 -5 0 -10
17 -11 38 0 32 -1 34 -9 15 -5 -13 -16 -23 -25 -23 -24 0 -18 -18 8 -22 34 -5
27 -32 -10 -36 l-31 -3 3 53 c1 29 3 54 4 56 0 1 19 2 41 2 l40 0 0 -40z m228
33 c-10 -2 -21 -17 -24 -31 -10 -47 -12 -48 -13 -4 -1 40 1 42 27 41 16 -1 20
-3 10 -6z m85 0 c-30 -6 -29 -15 1 -29 22 -10 25 -9 30 12 5 17 13 24 31 24
14 0 25 -2 25 -4 0 -2 3 -11 6 -20 5 -12 -1 -16 -25 -16 -22 0 -29 -4 -25 -14
3 -8 15 -17 27 -19 18 -3 17 -5 -5 -6 -16 0 -28 4 -28 11 0 9 -3 9 -12 0 -7
-7 -23 -11 -37 -11 -24 2 -24 2 -3 6 27 5 29 23 2 30 -11 3 -20 14 -20 24 0
14 7 19 28 18 23 -2 24 -2 5 -6z m-1926 -50 c-3 -10 -5 -2 -5 17 0 19 2 27 5
18 2 -10 2 -26 0 -35z m-1360 0 c-3 -10 -5 -4 -5 12 0 17 2 24 5 18 2 -7 2
-21 0 -30z m1060 15 c-3 -8 -6 -5 -6 6 -1 11 2 17 5 13 3 -3 4 -12 1 -19z
m2176 -5 c-7 -2 -19 -2 -25 0 -7 3 -2 5 12 5 14 0 19 -2 13 -5z m-3756 -25
c-3 -8 -6 -5 -6 6 -1 11 2 17 5 13 3 -3 4 -12 1 -19z m710 0 c-3 -8 -6 -5 -6
6 -1 11 2 17 5 13 3 -3 4 -12 1 -19z m-210 -4 c-3 -3 -12 -4 -19 -1 -8 3 -5 6
6 6 11 1 17 -2 13 -5z m2680 0 c-3 -3 -12 -4 -19 -1 -8 3 -5 6 6 6 11 1 17 -2
13 -5z m171 -21 c-21 -2 -55 -2 -75 0 -21 2 -4 4 37 4 41 0 58 -2 38 -4z m450
0 c-60 -2 -156 -2 -215 0 -60 1 -11 3 107 3 118 0 167 -2 108 -3z"/>
<path d="M5954 2526 c-9 -24 4 -48 23 -44 12 2 18 12 18 28 0 29 -32 41 -41
16z"/>
<path d="M5374 2526 c-9 -24 4 -48 23 -44 12 2 18 12 18 28 0 29 -32 41 -41
16z"/>
<path d="M5595 2530 c-4 -6 5 -10 20 -10 15 0 24 4 20 10 -3 6 -12 10 -20 10
-8 0 -17 -4 -20 -10z"/>
<path d="M5784 2526 c-9 -24 4 -48 23 -44 12 2 18 12 18 28 0 29 -32 41 -41
16z"/>
<path d="M6035 2530 c-3 -5 3 -10 14 -10 12 0 21 5 21 10 0 6 -6 10 -14 10 -8
0 -18 -4 -21 -10z"/>
<path d="M6295 2499 c-4 -6 -4 -13 -1 -16 8 -8 36 5 36 17 0 13 -27 13 -35 -1z"/>
<path d="M6360 2525 c0 -8 9 -15 20 -15 11 0 20 7 20 15 0 8 -9 15 -20 15 -11
0 -20 -7 -20 -15z"/>
<path d="M6360 2460 c0 -5 9 -10 19 -10 11 0 23 5 26 10 4 6 -5 10 -19 10 -14
0 -26 -4 -26 -10z"/>
<path d="M6440 2530 c0 -5 9 -10 21 -10 11 0 17 5 14 10 -3 6 -13 10 -21 10
-8 0 -14 -4 -14 -10z"/>
<path d="M6840 1566 c0 -30 3 -33 21 -29 29 8 36 33 14 49 -28 21 -35 17 -35
-20z"/>
<path d="M4292 1552 l-22 -17 30 -18 c29 -17 31 -17 60 0 l30 18 -22 17 c-29
22 -47 22 -76 0z"/>
<path d="M4938 1566 c8 -15 5 -28 -12 -55 -32 -51 -48 -81 -42 -81 3 0 12 14
21 30 13 25 22 30 51 30 l36 0 -23 38 c-24 40 -48 69 -31 38z"/>
<path d="M8164 1526 c-3 -14 -3 -37 0 -51 5 -20 13 -25 36 -25 23 0 31 5 36
24 12 48 2 71 -33 74 -28 3 -33 -1 -39 -22z"/>
<path d="M8363 1474 c-3 -8 -1 -20 5 -26 15 -15 62 6 62 27 0 21 -59 20 -67
-1z"/>
<path d="M8711 1476 c-9 -10 -7 -16 5 -27 18 -15 47 -2 52 25 4 20 -40 22 -57
2z"/>
<path d="M1876 1533 c-11 -11 -6 -23 9 -23 8 0 15 4 15 9 0 13 -16 22 -24 14z"/>
<path d="M2006 1533 c-11 -11 -6 -23 9 -23 8 0 15 4 15 9 0 13 -16 22 -24 14z"/>
<path d="M2204 1515 c-7 -18 3 -35 22 -35 8 0 14 10 14 25 0 27 -27 35 -36 10z"/>
<path d="M2401 1491 c-8 -5 -9 -11 -3 -15 5 -3 15 1 22 9 14 16 3 20 -19 6z"/>
<path d="M2595 1490 c-3 -5 1 -10 9 -10 9 0 16 5 16 10 0 6 -4 10 -9 10 -6 0
-13 -4 -16 -10z"/>
<path d="M2748 1518 c-7 -19 2 -38 17 -38 15 0 24 19 18 38 -3 6 -11 12 -18
12 -7 0 -15 -6 -17 -12z"/>
<path d="M3064 1515 c-7 -18 14 -47 27 -39 5 3 9 16 9 30 0 27 -27 34 -36 9z"/>
<path d="M3751 1476 c-9 -10 -8 -16 3 -25 10 -9 16 -8 25 3 9 10 8 16 -3 25
-10 9 -16 8 -25 -3z"/>
<path d="M5110 970 c0 -11 7 -20 15 -20 8 0 15 9 15 20 0 11 -7 20 -15 20 -8
0 -15 -9 -15 -20z"/>
<path d="M5350 961 c0 -5 8 -11 18 -15 9 -3 22 -8 27 -11 6 -3 11 4 11 15 0
15 -7 20 -28 20 -15 0 -28 -4 -28 -9z"/>
<path d="M5460 924 c0 -17 22 -14 28 4 2 7 -3 12 -12 12 -9 0 -16 -7 -16 -16z"/>
<path d="M5185 960 c-3 -5 3 -10 15 -10 12 0 18 5 15 10 -3 6 -10 10 -15 10
-5 0 -12 -4 -15 -10z"/>
<path d="M5257 964 c-8 -8 1 -24 14 -24 5 0 9 7 9 15 0 15 -12 20 -23 9z"/>
<path d="M5250 890 c0 -5 9 -10 20 -10 11 0 20 5 20 10 0 6 -9 10 -20 10 -11
0 -20 -4 -20 -10z"/>
<path d="M5690 960 c0 -5 7 -10 15 -10 8 0 15 5 15 10 0 6 -7 10 -15 10 -8 0
-15 -4 -15 -10z"/>
</g>
</svg>
